<mxfile host="Electron" modified="2023-11-26T23:02:34.785Z" agent="Mozilla/5.0 (Windows NT 10.0; Win64; x64) AppleWebKit/537.36 (KHTML, like Gecko) draw.io/22.1.2 Chrome/114.0.5735.289 Electron/25.9.4 Safari/537.36" etag="CiATY0zmPqAdqif2YrtF" version="22.1.2" type="device">
  <diagram name="Page-1" id="LMq3ALRfjDE3fZjFZeSV">
    <mxGraphModel dx="1886" dy="606" grid="1" gridSize="10" guides="1" tooltips="1" connect="1" arrows="1" fold="1" page="1" pageScale="1" pageWidth="850" pageHeight="1100" math="0" shadow="0">
      <root>
        <mxCell id="0" />
        <mxCell id="1" parent="0" />
        <mxCell id="050R8RCMJbOMZqObq47W-5" value="Playlist" style="swimlane;childLayout=stackLayout;horizontal=1;startSize=40;horizontalStack=0;rounded=1;fontSize=14;fontStyle=0;strokeWidth=2;resizeParent=0;resizeLast=1;shadow=0;dashed=0;align=center;arcSize=4;whiteSpace=wrap;html=1;" vertex="1" parent="1">
          <mxGeometry x="80" y="470" width="160" height="130" as="geometry" />
        </mxCell>
        <mxCell id="050R8RCMJbOMZqObq47W-6" value="+Playlist Id[RU]&lt;br&gt;+Playlist Title[R]&lt;br&gt;+Playlist Creator Id[RU]&lt;br&gt;+Creation Date[R]&lt;br&gt;+Modification Date[R]" style="align=left;strokeColor=none;fillColor=none;spacingLeft=4;fontSize=12;verticalAlign=top;resizable=0;rotatable=0;part=1;html=1;" vertex="1" parent="050R8RCMJbOMZqObq47W-5">
          <mxGeometry y="40" width="160" height="90" as="geometry" />
        </mxCell>
        <mxCell id="050R8RCMJbOMZqObq47W-9" value="Song" style="swimlane;childLayout=stackLayout;horizontal=1;startSize=30;horizontalStack=0;rounded=1;fontSize=14;fontStyle=0;strokeWidth=2;resizeParent=0;resizeLast=1;shadow=0;dashed=0;align=center;arcSize=4;whiteSpace=wrap;html=1;" vertex="1" parent="1">
          <mxGeometry x="310" y="90" width="160" height="130" as="geometry" />
        </mxCell>
        <mxCell id="050R8RCMJbOMZqObq47W-10" value="+Song ID[RU]&lt;br&gt;+Title[RU]&lt;br&gt;+Artist[RC]&lt;br&gt;+Genre[RM]&lt;br&gt;+Release Date&lt;br&gt;+Duration[R]" style="align=left;strokeColor=none;fillColor=none;spacingLeft=4;fontSize=12;verticalAlign=top;resizable=0;rotatable=0;part=1;html=1;" vertex="1" parent="050R8RCMJbOMZqObq47W-9">
          <mxGeometry y="30" width="160" height="100" as="geometry" />
        </mxCell>
        <mxCell id="050R8RCMJbOMZqObq47W-26" style="edgeStyle=orthogonalEdgeStyle;rounded=0;orthogonalLoop=1;jettySize=auto;html=1;exitX=0.5;exitY=0;exitDx=0;exitDy=0;entryX=0.5;entryY=0;entryDx=0;entryDy=0;endArrow=ERoneToMany;endFill=0;startArrow=ERmandOne;startFill=0;endSize=10;startSize=10;" edge="1" parent="1" source="050R8RCMJbOMZqObq47W-11" target="050R8RCMJbOMZqObq47W-14">
          <mxGeometry relative="1" as="geometry" />
        </mxCell>
        <mxCell id="050R8RCMJbOMZqObq47W-27" value="have /&lt;br&gt;created by" style="edgeLabel;html=1;align=center;verticalAlign=middle;resizable=0;points=[];" vertex="1" connectable="0" parent="050R8RCMJbOMZqObq47W-26">
          <mxGeometry x="-0.059" y="5" relative="1" as="geometry">
            <mxPoint as="offset" />
          </mxGeometry>
        </mxCell>
        <mxCell id="050R8RCMJbOMZqObq47W-31" style="edgeStyle=orthogonalEdgeStyle;rounded=0;orthogonalLoop=1;jettySize=auto;html=1;exitX=0.25;exitY=0;exitDx=0;exitDy=0;entryX=0.25;entryY=0;entryDx=0;entryDy=0;endSize=10;startSize=10;endArrow=ERoneToMany;endFill=0;startArrow=ERoneToMany;startFill=0;" edge="1" parent="1" source="050R8RCMJbOMZqObq47W-11" target="050R8RCMJbOMZqObq47W-18">
          <mxGeometry relative="1" as="geometry" />
        </mxCell>
        <mxCell id="050R8RCMJbOMZqObq47W-32" value="has /&amp;nbsp;&lt;br&gt;have" style="edgeLabel;html=1;align=center;verticalAlign=middle;resizable=0;points=[];" vertex="1" connectable="0" parent="050R8RCMJbOMZqObq47W-31">
          <mxGeometry x="-0.161" y="-1" relative="1" as="geometry">
            <mxPoint as="offset" />
          </mxGeometry>
        </mxCell>
        <mxCell id="050R8RCMJbOMZqObq47W-11" value="User" style="swimlane;childLayout=stackLayout;horizontal=1;startSize=30;horizontalStack=0;rounded=1;fontSize=14;fontStyle=0;strokeWidth=2;resizeParent=0;resizeLast=1;shadow=0;dashed=0;align=center;arcSize=4;whiteSpace=wrap;html=1;" vertex="1" parent="1">
          <mxGeometry y="90" width="160" height="130" as="geometry" />
        </mxCell>
        <mxCell id="050R8RCMJbOMZqObq47W-12" value="+UserID[RU]&lt;br&gt;+Name[RC]&lt;br&gt;+Email[RU]&lt;br&gt;+Role[R]&lt;br&gt;+Registration Date[R]&lt;br&gt;+Last login Date[R]" style="align=left;strokeColor=none;fillColor=none;spacingLeft=4;fontSize=12;verticalAlign=top;resizable=0;rotatable=0;part=1;html=1;" vertex="1" parent="050R8RCMJbOMZqObq47W-11">
          <mxGeometry y="30" width="160" height="100" as="geometry" />
        </mxCell>
        <mxCell id="050R8RCMJbOMZqObq47W-14" value="User Interaction" style="swimlane;childLayout=stackLayout;horizontal=1;startSize=40;horizontalStack=0;rounded=1;fontSize=14;fontStyle=0;strokeWidth=2;resizeParent=0;resizeLast=1;shadow=0;dashed=0;align=center;arcSize=4;whiteSpace=wrap;html=1;" vertex="1" parent="1">
          <mxGeometry x="570" y="110" width="160" height="90" as="geometry" />
        </mxCell>
        <mxCell id="050R8RCMJbOMZqObq47W-15" value="+Interaction ID[RU]&lt;br&gt;+Likes" style="align=left;strokeColor=none;fillColor=none;spacingLeft=4;fontSize=12;verticalAlign=top;resizable=0;rotatable=0;part=1;html=1;" vertex="1" parent="050R8RCMJbOMZqObq47W-14">
          <mxGeometry y="40" width="160" height="50" as="geometry" />
        </mxCell>
        <mxCell id="050R8RCMJbOMZqObq47W-16" value="&lt;table style=&quot;border-collapse:&lt;br/&gt; collapse;width:87pt&quot; width=&quot;116&quot; cellspacing=&quot;0&quot; cellpadding=&quot;0&quot; border=&quot;0&quot;&gt;&lt;tbody&gt;&lt;tr style=&quot;height:14.4pt&quot; height=&quot;19&quot;&gt;&lt;br/&gt;  &lt;td style=&quot;height:14.4pt;width:87pt&quot; width=&quot;116&quot; height=&quot;19&quot;&gt;User Profile&amp;nbsp;&lt;/td&gt;&lt;/tr&gt;&lt;/tbody&gt;&lt;/table&gt;" style="swimlane;childLayout=stackLayout;horizontal=1;startSize=50;horizontalStack=0;rounded=1;fontSize=14;fontStyle=0;strokeWidth=2;resizeParent=0;resizeLast=1;shadow=0;dashed=0;align=center;arcSize=4;whiteSpace=wrap;html=1;" vertex="1" parent="1">
          <mxGeometry x="230" y="310" width="160" height="120" as="geometry" />
        </mxCell>
        <mxCell id="050R8RCMJbOMZqObq47W-17" value="+User ID[RU]&lt;br&gt;+Display Name[RC]&lt;br&gt;+BIO&lt;br&gt;+Profile Picture" style="align=left;strokeColor=none;fillColor=none;spacingLeft=4;fontSize=12;verticalAlign=top;resizable=0;rotatable=0;part=1;html=1;" vertex="1" parent="050R8RCMJbOMZqObq47W-16">
          <mxGeometry y="50" width="160" height="70" as="geometry" />
        </mxCell>
        <mxCell id="050R8RCMJbOMZqObq47W-18" value="Analytics" style="swimlane;childLayout=stackLayout;horizontal=1;startSize=50;horizontalStack=0;rounded=1;fontSize=14;fontStyle=0;strokeWidth=2;resizeParent=0;resizeLast=1;shadow=0;dashed=0;align=center;arcSize=4;whiteSpace=wrap;html=1;" vertex="1" parent="1">
          <mxGeometry x="-260" y="180" width="160" height="120" as="geometry" />
        </mxCell>
        <mxCell id="050R8RCMJbOMZqObq47W-19" value="+Anlytics Id[RU]&lt;br&gt;+Interaction Type&lt;br&gt;+Interaction Date" style="align=left;strokeColor=none;fillColor=none;spacingLeft=4;fontSize=12;verticalAlign=top;resizable=0;rotatable=0;part=1;html=1;" vertex="1" parent="050R8RCMJbOMZqObq47W-18">
          <mxGeometry y="50" width="160" height="70" as="geometry" />
        </mxCell>
        <mxCell id="050R8RCMJbOMZqObq47W-20" value="&lt;table style=&quot;border-collapse:&lt;br/&gt; collapse;width:87pt&quot; width=&quot;116&quot; cellspacing=&quot;0&quot; cellpadding=&quot;0&quot; border=&quot;0&quot;&gt;&lt;tbody&gt;&lt;tr style=&quot;height:14.4pt&quot; height=&quot;19&quot;&gt;&lt;br/&gt;  &lt;td style=&quot;height:14.4pt;width:87pt&quot; width=&quot;116&quot; height=&quot;19&quot;&gt;Administrator&lt;/td&gt;&lt;/tr&gt;&lt;/tbody&gt;&lt;/table&gt;" style="swimlane;childLayout=stackLayout;horizontal=1;startSize=40;horizontalStack=0;rounded=1;fontSize=14;fontStyle=0;strokeWidth=2;resizeParent=0;resizeLast=1;shadow=0;dashed=0;align=center;arcSize=4;whiteSpace=wrap;html=1;" vertex="1" parent="1">
          <mxGeometry x="-90" y="330" width="160" height="80" as="geometry" />
        </mxCell>
        <mxCell id="050R8RCMJbOMZqObq47W-21" value="+Admin Id" style="align=left;strokeColor=none;fillColor=none;spacingLeft=4;fontSize=12;verticalAlign=top;resizable=0;rotatable=0;part=1;html=1;" vertex="1" parent="050R8RCMJbOMZqObq47W-20">
          <mxGeometry y="40" width="160" height="40" as="geometry" />
        </mxCell>
        <mxCell id="050R8RCMJbOMZqObq47W-22" style="edgeStyle=orthogonalEdgeStyle;rounded=0;orthogonalLoop=1;jettySize=auto;html=1;exitX=1;exitY=0.5;exitDx=0;exitDy=0;entryX=0;entryY=0.5;entryDx=0;entryDy=0;endArrow=ERoneToMany;endFill=0;startArrow=ERoneToMany;startFill=0;endSize=10;startSize=10;" edge="1" parent="1" source="050R8RCMJbOMZqObq47W-12" target="050R8RCMJbOMZqObq47W-10">
          <mxGeometry relative="1" as="geometry" />
        </mxCell>
        <mxCell id="050R8RCMJbOMZqObq47W-23" value="listens/&lt;br&gt;listened by" style="edgeLabel;html=1;align=center;verticalAlign=middle;resizable=0;points=[];" vertex="1" connectable="0" parent="050R8RCMJbOMZqObq47W-22">
          <mxGeometry x="-0.1813" y="-1" relative="1" as="geometry">
            <mxPoint as="offset" />
          </mxGeometry>
        </mxCell>
        <mxCell id="050R8RCMJbOMZqObq47W-24" style="edgeStyle=orthogonalEdgeStyle;rounded=0;orthogonalLoop=1;jettySize=auto;html=1;exitX=0.5;exitY=1;exitDx=0;exitDy=0;entryX=0.5;entryY=0;entryDx=0;entryDy=0;endArrow=ERoneToMany;endFill=0;endSize=10;startSize=10;startArrow=ERmandOne;startFill=0;" edge="1" parent="1" source="050R8RCMJbOMZqObq47W-12" target="050R8RCMJbOMZqObq47W-5">
          <mxGeometry relative="1" as="geometry" />
        </mxCell>
        <mxCell id="050R8RCMJbOMZqObq47W-25" value="creates /&lt;br&gt;created by" style="edgeLabel;html=1;align=center;verticalAlign=middle;resizable=0;points=[];" vertex="1" connectable="0" parent="050R8RCMJbOMZqObq47W-24">
          <mxGeometry x="0.076" relative="1" as="geometry">
            <mxPoint as="offset" />
          </mxGeometry>
        </mxCell>
        <mxCell id="050R8RCMJbOMZqObq47W-29" style="edgeStyle=orthogonalEdgeStyle;rounded=0;orthogonalLoop=1;jettySize=auto;html=1;exitX=0.75;exitY=1;exitDx=0;exitDy=0;endSize=10;startSize=10;endArrow=ERmandOne;endFill=0;startArrow=ERmandOne;startFill=0;" edge="1" parent="1" source="050R8RCMJbOMZqObq47W-12" target="050R8RCMJbOMZqObq47W-16">
          <mxGeometry relative="1" as="geometry" />
        </mxCell>
        <mxCell id="050R8RCMJbOMZqObq47W-30" value="have /&lt;br&gt;owned by" style="edgeLabel;html=1;align=center;verticalAlign=middle;resizable=0;points=[];" vertex="1" connectable="0" parent="050R8RCMJbOMZqObq47W-29">
          <mxGeometry x="-0.1103" y="-1" relative="1" as="geometry">
            <mxPoint as="offset" />
          </mxGeometry>
        </mxCell>
        <mxCell id="050R8RCMJbOMZqObq47W-33" style="edgeStyle=orthogonalEdgeStyle;rounded=0;orthogonalLoop=1;jettySize=auto;html=1;exitX=0.25;exitY=1;exitDx=0;exitDy=0;entryX=0.5;entryY=0;entryDx=0;entryDy=0;endArrow=ERmandOne;endFill=0;startArrow=ERoneToMany;startFill=0;endSize=10;startSize=10;" edge="1" parent="1" source="050R8RCMJbOMZqObq47W-12" target="050R8RCMJbOMZqObq47W-20">
          <mxGeometry relative="1" as="geometry" />
        </mxCell>
        <mxCell id="050R8RCMJbOMZqObq47W-34" value="have /&lt;br&gt;has" style="edgeLabel;html=1;align=center;verticalAlign=middle;resizable=0;points=[];" vertex="1" connectable="0" parent="050R8RCMJbOMZqObq47W-33">
          <mxGeometry x="-0.0175" relative="1" as="geometry">
            <mxPoint as="offset" />
          </mxGeometry>
        </mxCell>
        <mxCell id="050R8RCMJbOMZqObq47W-35" style="edgeStyle=orthogonalEdgeStyle;rounded=0;orthogonalLoop=1;jettySize=auto;html=1;exitX=1;exitY=0.75;exitDx=0;exitDy=0;entryX=0.87;entryY=1.006;entryDx=0;entryDy=0;entryPerimeter=0;endArrow=ERmany;endFill=0;startArrow=ERoneToMany;startFill=0;endSize=10;startSize=10;" edge="1" parent="1" source="050R8RCMJbOMZqObq47W-6" target="050R8RCMJbOMZqObq47W-10">
          <mxGeometry relative="1" as="geometry" />
        </mxCell>
        <mxCell id="050R8RCMJbOMZqObq47W-36" value="contained in /&lt;br&gt;contains" style="edgeLabel;html=1;align=center;verticalAlign=middle;resizable=0;points=[];" vertex="1" connectable="0" parent="050R8RCMJbOMZqObq47W-35">
          <mxGeometry x="0.2228" relative="1" as="geometry">
            <mxPoint as="offset" />
          </mxGeometry>
        </mxCell>
        <mxCell id="050R8RCMJbOMZqObq47W-37" style="edgeStyle=orthogonalEdgeStyle;rounded=0;orthogonalLoop=1;jettySize=auto;html=1;exitX=1;exitY=0.5;exitDx=0;exitDy=0;entryX=0.5;entryY=1;entryDx=0;entryDy=0;endArrow=ERoneToMany;endFill=0;startArrow=ERmandOne;startFill=0;endSize=10;startSize=10;" edge="1" parent="1" source="050R8RCMJbOMZqObq47W-10" target="050R8RCMJbOMZqObq47W-15">
          <mxGeometry relative="1" as="geometry" />
        </mxCell>
        <mxCell id="050R8RCMJbOMZqObq47W-38" value="has /&lt;br&gt;have" style="edgeLabel;html=1;align=center;verticalAlign=middle;resizable=0;points=[];" vertex="1" connectable="0" parent="050R8RCMJbOMZqObq47W-37">
          <mxGeometry x="-0.1007" y="-4" relative="1" as="geometry">
            <mxPoint as="offset" />
          </mxGeometry>
        </mxCell>
        <mxCell id="050R8RCMJbOMZqObq47W-39" style="edgeStyle=orthogonalEdgeStyle;rounded=0;orthogonalLoop=1;jettySize=auto;html=1;exitX=0.5;exitY=1;exitDx=0;exitDy=0;entryX=0.82;entryY=1.012;entryDx=0;entryDy=0;entryPerimeter=0;endArrow=ERmany;endFill=0;startArrow=ERmany;startFill=0;endSize=10;startSize=10;" edge="1" parent="1" source="050R8RCMJbOMZqObq47W-6" target="050R8RCMJbOMZqObq47W-15">
          <mxGeometry relative="1" as="geometry" />
        </mxCell>
        <mxCell id="050R8RCMJbOMZqObq47W-40" value="has /&lt;br&gt;have" style="edgeLabel;html=1;align=center;verticalAlign=middle;resizable=0;points=[];" vertex="1" connectable="0" parent="050R8RCMJbOMZqObq47W-39">
          <mxGeometry x="-0.0753" y="3" relative="1" as="geometry">
            <mxPoint as="offset" />
          </mxGeometry>
        </mxCell>
      </root>
    </mxGraphModel>
  </diagram>
</mxfile>
